<?xml version="1.0" encoding="UTF-8" standalone="no"?>
<!-- Created with Inkscape (http://www.inkscape.org/) -->

<svg
    width="460"
    height="128"
    viewBox="0 0 121.70836 33.866644"
    version="1.1"
    id="svg1"
    xmlns="http://www.w3.org/2000/svg"
    xmlns:svg="http://www.w3.org/2000/svg"
>
    <defs id="defs1" />
    <style>
        .logo {
            fill: black;
        }

        @media (prefers-color-scheme: dark) {
            .logo {
                fill: white;
            }
        }
    </style>
    <g id="layer2" style="display: inline">
        <g
            id="text1"
            style="
                font-weight: 500;
                font-size: 59.8597px;
                font-family: &quot;EB Garamond&quot;;
                -inkscape-font-specification: &quot;EB Garamond, Medium&quot;;
                font-variant-caps: small-caps;
                letter-spacing: -2.52832px;
                white-space: pre;
            "
            transform="matrix(0.34952333,0,0,0.34952333,4.175294,-6.0215849)"
            aria-label="Præsentia"
        >
            <path
                d="m 31.1845,85.21913 q -0.658457,0 -1.137335,-0.179579 -0.419018,-0.11972 -0.419018,-0.538738 0,-0.778176 1.735932,-1.137334 2.274668,-0.419018 3.232423,-1.316913 1.017615,-0.897896 1.017615,-2.992985 V 53.25405 q 0,-2.514107 -0.718316,-3.771161 -0.658457,-1.257053 -2.873266,-1.676071 -0.957755,-0.179579 -1.376773,-0.478878 -0.419018,-0.299298 -0.419018,-0.718316 0,-0.359159 0.419018,-0.538738 0.478878,-0.239438 1.137335,-0.239438 1.556352,0 2.573967,0.05986 1.017615,0 1.97537,0.05986 0.957755,0.05986 2.154949,0.05986 1.257054,0 2.454248,-0.11972 1.197194,-0.119719 2.334528,-0.239439 1.197194,-0.119719 2.394388,-0.119719 7.003585,0 11.193764,2.933125 4.190179,2.933126 4.190179,8.08106 0,3.651441 -1.496493,6.764146 -1.436633,3.112704 -4.489477,5.028214 -3.052845,1.855651 -7.781761,1.855651 -1.376773,0 -2.154949,-0.419018 -0.718317,-0.419018 -0.718317,-0.838036 0,-0.359158 0.359158,-0.598597 0.359159,-0.299298 0.658457,-0.299298 0.419018,0 0.957755,0.119719 0.598597,0.05986 1.676072,0.05986 3.232424,0 4.848635,-2.933125 1.676072,-2.933125 1.676072,-7.96134 0,-5.028215 -2.514107,-7.362743 -2.454248,-2.394388 -6.404988,-2.394388 -1.676072,0 -2.693687,0.658457 -0.957755,0.598597 -0.957755,2.035229 l -0.05986,28.313638 q 0,2.03523 0.957756,3.232424 0.957755,1.137334 3.292283,1.556352 0.838036,0.179579 1.257054,0.419018 0.478877,0.239439 0.478877,0.718316 0,0.359158 -0.419017,0.538738 -0.419018,0.179579 -1.137335,0.179579 -1.496492,0 -2.693686,-0.11972 -1.137335,-0.05986 -2.214809,-0.119719 -1.017615,-0.11972 -2.154949,-0.11972 -1.436633,0 -2.753546,0.11972 -1.257054,0.05986 -2.573968,0.119719 -1.257053,0.11972 -2.813405,0.119719 z"
                id="path12"
                class="logo"
            />
            <path
                d="m 88.994704,85.817727 q -1.556352,0 -2.873265,-0.478878 Q 84.804525,84.859971 83.78691,84.021936 82.769295,83.12404 81.93126,82.166285 81.332663,81.447969 80.434767,80.131055 79.596731,78.814142 78.698836,77.377509 77.8608,75.881017 77.262203,74.683823 76.903045,73.965506 75.94529,73.486629 75.047394,72.947891 73.8502,72.947891 q -0.299298,0 -0.718316,0.299299 -0.419018,0.299298 -0.419018,0.778176 v 6.404988 q 0,1.436633 0.658457,2.03523 0.718316,0.538737 2.394388,0.838035 0.478877,0.05986 0.897895,0.299299 0.419018,0.179579 0.419018,0.658456 0,0.359159 -0.419018,0.598597 -0.359158,0.17958 -0.658457,0.17958 -0.838035,0 -1.676071,-0.05986 -0.778176,0 -1.616212,-0.05986 -0.778176,-0.05986 -1.616212,-0.05986 -0.778176,0 -1.556352,0 -1.137334,0 -2.214809,0.05986 -1.077475,0.05986 -2.154949,0.11972 -1.077475,0.05986 -2.214809,0.05986 -0.359158,0 -0.778176,-0.239439 -0.359158,-0.239438 -0.359158,-0.538737 0,-0.478877 0.419018,-0.718316 0.478877,-0.239439 0.897895,-0.299299 1.616212,-0.299298 2.514107,-0.838035 0.957756,-0.598597 0.957756,-2.09509 V 63.25062 q 0,-1.556352 -0.718317,-2.334528 -0.658456,-0.838036 -2.394388,-1.137335 -0.538737,-0.119719 -0.957755,-0.419017 -0.359158,-0.299299 -0.359158,-0.718317 0,-0.359158 0.359158,-0.538737 0.419018,-0.239439 0.778176,-0.239439 1.316914,0 2.214809,0.11972 0.957755,0.05986 1.795791,0.179579 0.897896,0.05986 2.03523,0.05986 1.436633,0 3.292283,-0.179579 1.915511,-0.179579 4.07046,-0.179579 2.992985,0 5.387373,0.658457 2.454247,0.598597 3.89088,2.095089 1.436633,1.496493 1.436633,4.0106 0.05986,1.735931 -0.718316,3.112704 -0.778177,1.316914 -1.915511,2.15495 -1.137334,0.838035 -2.334528,1.257053 -0.598597,0.179579 -0.359158,0.718317 0.598597,1.376773 1.556352,3.052844 0.957755,1.616212 2.03523,3.112705 1.077474,1.436633 1.97537,2.514107 0.658456,0.718317 1.676071,1.376773 1.077475,0.658457 2.03523,1.077475 1.017615,0.419018 1.496493,0.478877 0.299298,0.05986 0.658456,0.239439 0.419018,0.11972 0.419018,0.598597 0,0.478878 -0.718316,0.778176 -0.718317,0.359158 -1.855651,0.538738 -1.137334,0.179579 -2.394388,0.179578 z M 74.508657,70.972521 q 3.052845,0 4.968355,-1.257053 1.91551,-1.257054 1.855651,-4.429618 0,-1.915511 -0.957756,-3.052845 -0.957755,-1.197194 -2.394388,-1.795791 -1.436632,-0.598597 -3.052844,-0.598597 -1.077475,0 -1.676072,0.359158 -0.598597,0.359159 -0.598597,1.376773 l 0.05986,7.721902 q 0,1.077474 0.538737,1.376773 0.538738,0.299298 1.257054,0.299298 z M 92.811494,85.15927 q -0.538738,0 -0.897896,-0.119719 -0.359158,-0.11972 -0.359158,-0.419018 0,-0.359159 0.359158,-0.478878 0.359158,-0.179579 0.897896,-0.359158 1.137334,-0.299299 2.214809,-1.197194 1.077474,-0.957755 1.85565,-2.214809 L 108.43488,61.873847 q 0.53873,-0.897896 -0.41902,-1.137334 l -3.59158,-0.658457 q -0.71832,-0.119719 -0.71832,-0.838036 0,-0.299298 0.23944,-0.419018 0.23944,-0.179579 0.53874,-0.179579 0.71831,0 1.91551,0.05986 1.19719,0 2.5141,0.05986 1.31692,0 2.51411,0 1.73593,0 3.7113,0 2.03523,-0.05986 4.0106,-0.05986 1.97537,-0.05986 3.65144,-0.05986 1.73593,0 2.99299,0 1.25705,-0.05986 1.73593,-0.05986 0.2993,0 0.53874,0.119719 0.2993,0.119719 0.35915,0.538737 0.17958,1.137334 0.35916,2.394388 0.23944,1.257054 0.2993,2.394388 0,0.239439 -0.0599,0.598597 -0.0599,0.359158 -0.53874,0.359158 -0.35915,0 -0.59859,-0.359158 -0.23944,-0.359158 -0.35916,-0.658457 -0.65846,-1.735931 -1.49649,-2.573967 -0.83804,-0.838035 -2.63383,-0.838035 h -4.0106 q -0.95775,0 -1.37677,0.359158 -0.35916,0.359158 -0.35916,1.017615 v 8.320498 q 0,0.538737 0.11972,0.778176 0.17958,0.179579 0.5986,0.179579 h 2.63382 q 1.31692,0 2.27467,-0.359158 0.95776,-0.419018 1.49649,-1.676072 0.11972,-0.239439 0.35916,-0.538737 0.2993,-0.299299 0.5986,-0.299299 0.2993,0 0.41902,0.299299 0.11972,0.239439 0.11972,0.658457 -0.0599,0.538737 -0.11972,1.376773 -0.0599,0.838036 -0.0599,1.496492 0,0.598597 0.0599,1.556352 0.0599,0.957756 0.0599,1.735932 0.0599,0.538737 -0.0599,0.897895 -0.0599,0.359158 -0.35916,0.359158 -0.2993,0 -0.65846,-0.419018 -0.2993,-0.419017 -0.41902,-0.897895 -0.2993,-1.017615 -0.89789,-1.496492 -0.53874,-0.538738 -1.1972,-0.538738 h -4.07046 q -0.47887,0 -0.71831,0.299299 -0.17958,0.239439 -0.17958,0.658456 v 6.225409 q 0,2.514108 2.51411,2.514108 h 4.78877 q 1.49649,0 2.63383,-0.897896 1.13733,-0.957755 1.79579,-2.693686 0.11972,-0.239439 0.2993,-0.658457 0.23944,-0.419018 0.65846,-0.419018 0.41901,0 0.47887,0.478878 0.11972,0.478877 0.11972,0.718316 0,1.257054 -0.2993,2.394388 -0.23944,1.077475 -0.59859,2.334528 -0.11972,0.359158 -0.35916,0.598597 -0.17958,0.239439 -0.5986,0.239439 -1.49649,0 -3.29228,-0.05986 -1.73593,0 -3.59158,-0.05986 -1.85565,-0.05986 -3.71131,-0.05986 -1.85565,0 -3.53172,0 -1.13733,0 -2.15495,0 -0.95775,0.05986 -1.97537,0.119719 -1.01761,0.05986 -2.15495,0.05986 -1.13733,0 -1.13733,-0.538737 0,-0.359159 0.2993,-0.538738 0.35916,-0.179579 1.01761,-0.299298 1.43664,-0.299299 2.09509,-0.838036 0.65846,-0.538737 0.65846,-1.795791 0,-1.496492 -0.0599,-3.172564 0,-1.735931 0,-2.992985 0,-0.359158 -0.17958,-0.538737 -0.17958,-0.179579 -0.77818,-0.179579 h -5.98597 q -0.41901,0 -0.71831,0.239439 -0.23944,0.179579 -0.41902,0.598597 -0.77818,1.257053 -1.55635,2.573967 -0.77818,1.257053 -1.67607,2.873265 -0.65846,1.316914 0,2.03523 0.65845,0.658457 2.45424,1.077474 1.37678,0.299299 1.37678,0.838036 0,0.538738 -1.25706,0.538738 -1.01761,0 -2.39438,-0.05986 -1.316918,-0.05986 -2.693691,-0.05986 -1.316913,0 -2.514107,0.11972 -1.197194,0.119719 -2.394388,0.119719 z M 105.86091,72.109856 h 5.02821 q 0.47888,0 0.53874,-0.11972 0.11972,-0.119719 0.11972,-0.538737 v -9.338113 q 0,-0.299299 -0.17958,-0.299299 -0.11972,-0.05986 -0.2993,0.239439 l -5.56695,9.397973 q -0.17958,0.299298 -0.11972,0.478877 0.11972,0.17958 0.47888,0.17958 z m 36.7995,13.648011 q -2.27467,0 -3.83102,-0.478878 -1.55635,-0.419018 -2.87327,-0.897895 -0.47887,-0.11972 -0.59859,-0.299299 -0.11972,-0.179579 -0.23944,-0.359158 -0.2993,-0.598597 -0.53874,-1.616212 -0.23944,-1.077474 -0.35916,-2.274668 -0.11972,-1.197194 -0.11972,-2.214809 0,-0.419018 0.11972,-0.897896 0.17958,-0.538737 0.65846,-0.538737 0.5986,0 0.83804,0.538737 0.29929,0.538738 0.47887,0.957756 0.5986,1.197194 1.4965,2.693686 0.95775,1.436633 2.27466,2.514107 1.31692,1.017615 3.11271,1.017615 2.57397,0 3.65144,-1.257053 1.13733,-1.316914 1.13733,-2.873266 0,-1.316913 -0.71831,-2.334528 -0.65846,-1.017615 -2.27467,-1.97537 l -4.48948,-2.813406 q -2.27467,-1.376773 -3.7113,-3.172564 -1.37677,-1.795791 -1.37677,-4.429618 0,-2.454248 1.49649,-4.130319 1.49649,-1.676072 3.83102,-2.514108 2.33453,-0.838035 4.72892,-0.838035 2.03523,0 3.59158,0.299298 1.55635,0.299299 2.33453,0.478878 0.41901,0.119719 0.65845,0.359158 0.23944,0.239439 0.35916,0.718316 0.23944,1.017615 0.23944,2.274669 0.0599,1.257054 0.11972,2.693686 0,0.299299 -0.2993,0.778176 -0.23944,0.419018 -0.5986,0.419018 -0.35915,0 -0.77817,-0.359158 -0.35916,-0.419018 -0.47888,-0.838036 -0.41902,-1.91551 -1.43663,-2.992985 -0.95776,-1.077474 -2.09509,-1.496492 -1.07748,-0.478878 -1.97537,-0.478878 -2.03523,0 -3.23243,1.077475 -1.13733,1.077474 -1.13733,2.573967 0,1.616212 0.8979,2.573967 0.95775,0.957755 2.63382,1.91551 l 5.02822,2.992985 q 1.97537,1.257054 3.17256,3.052845 1.1972,1.795791 1.1972,4.130319 0,1.735932 -1.25706,3.591582 -1.25705,1.855651 -3.7113,3.172564 -2.39439,1.257054 -5.92611,1.257054 z m 15.07043,-0.598597 q -0.35916,0 -0.77818,-0.179579 -0.35916,-0.239439 -0.35916,-0.598597 0,-0.478878 0.41902,-0.718317 0.47888,-0.239438 0.8979,-0.359158 1.43663,-0.299298 2.39439,-0.838035 0.95775,-0.598597 0.95775,-2.03523 V 63.490059 q 0,-1.616212 -0.65846,-2.514108 -0.65845,-0.897895 -2.45424,-1.197194 -0.47888,-0.119719 -0.8979,-0.419017 -0.35916,-0.299299 -0.35916,-0.718317 0,-0.359158 0.35916,-0.538737 0.41902,-0.239439 0.77818,-0.239439 1.01761,0 1.91551,0.05986 0.89789,0.05986 1.79579,0.179579 0.89789,0.05986 1.73593,0.05986 2.09509,0 4.3099,0 2.21481,-0.05986 4.25004,-0.05986 2.03523,-0.05986 3.59158,-0.05986 1.61621,-0.05986 2.39439,-0.05986 0.23944,0 0.53873,0.119719 0.35916,0.119719 0.35916,0.478878 0.0599,1.97537 0.35916,3.412002 0.2993,1.376773 0.2993,2.15495 0,0.239438 -0.17958,0.538737 -0.11972,0.299298 -0.2993,0.299298 -0.23944,0 -0.5986,-0.239438 -0.35915,-0.239439 -0.59859,-0.778177 -0.71832,-1.735931 -1.49649,-2.753546 -0.71832,-1.077474 -2.45425,-1.077474 h -4.9085 q -0.53874,0 -1.13733,0.359158 -0.53874,0.299298 -0.53874,1.077474 v 7.482463 q 0,0.419018 0.23944,0.897895 0.23944,0.419018 0.5986,0.419018 h 4.07046 q 0.95775,0 1.43663,-0.598597 0.53874,-0.658456 0.95775,-1.91551 0.17958,-0.359158 0.41902,-0.598597 0.23944,-0.299299 0.53874,-0.299299 0.2993,0 0.47888,0.299299 0.23944,0.239439 0.17958,0.658457 -0.11972,0.897895 -0.17958,1.795791 -0.0599,0.897895 -0.0599,1.676071 0,0.897896 0.0599,1.676072 0.11972,0.718316 0.17958,1.735931 0.0599,0.419018 -0.11972,0.838036 -0.11972,0.359158 -0.41902,0.359158 -0.47888,0 -0.71832,-0.478878 -0.23944,-0.538737 -0.35916,-0.838035 -0.29929,-1.197194 -0.89789,-1.616212 -0.53874,-0.419018 -1.1972,-0.478878 -0.83803,-0.119719 -1.97537,-0.119719 -1.07747,0 -1.97537,0 -0.71831,0 -1.01761,0.179579 -0.23944,0.179579 -0.23944,0.897895 v 6.883866 q 0,1.376773 0.35916,1.795791 0.35916,0.419018 1.55635,0.419018 h 5.26765 q 1.85566,0 3.23243,-1.197194 1.37677,-1.197194 1.97537,-2.693687 0.11972,-0.239439 0.2993,-0.538737 0.23944,-0.359158 0.59859,-0.359158 0.35916,0 0.47888,0.359158 0.11972,0.299298 0.11972,0.658457 -0.0599,1.257053 -0.41902,2.633826 -0.2993,1.376773 -0.71831,2.693687 -0.0599,0.359158 -0.41902,0.658456 -0.35916,0.239439 -0.77818,0.239439 -1.67607,0 -3.59158,-0.05986 -1.91551,0 -3.89088,-0.05986 -1.91551,0 -3.89088,-0.05986 -1.91551,-0.05986 -3.65144,-0.05986 -1.01762,0 -2.09509,0.11972 -1.01762,0.05986 -2.03523,0.119719 -1.01762,0.05986 -2.03523,0.05986 z m 53.02143,0.658457 q -0.71832,0 -1.31691,-0.239439 -0.5986,-0.239439 -1.13734,-0.658457 -0.53873,-0.478877 -1.13733,-1.197194 L 192.55492,66.183745 q -0.41902,-0.478877 -0.83803,-0.778176 -0.35916,-0.299298 -0.53874,-0.299298 -0.17958,0 -0.2993,0.359158 -0.0599,0.359158 -0.0599,1.017615 0,2.394388 0,4.968355 0.0599,2.573967 0.11972,4.848635 0.11972,2.214809 0.17958,3.890881 0.11972,1.496492 0.83804,2.154949 0.77817,0.658457 2.5141,1.017615 0.41902,0.05986 0.83804,0.299298 0.47888,0.239439 0.47888,0.718317 0,0.359158 -0.41902,0.538737 -0.35916,0.179579 -0.71832,0.179579 -1.73593,0 -2.57397,-0.119719 -0.83803,-0.11972 -2.27466,-0.11972 -1.55636,0 -2.69369,0.11972 -1.13733,0.119719 -2.63383,0.119719 -0.2993,0 -0.71831,-0.179579 -0.35916,-0.179579 -0.35916,-0.538737 0,-0.478878 0.35916,-0.658457 0.41901,-0.239439 0.89789,-0.299298 1.37678,-0.239439 2.27467,-0.838036 0.8979,-0.598597 1.01762,-2.154949 0.0599,-0.658457 0.11972,-2.09509 0.0599,-1.496492 0.11971,-3.412003 0.0599,-1.97537 0.11972,-4.070459 0.0599,-2.154949 0.0599,-4.07046 0.0599,-1.97537 0.0599,-3.352143 0,-0.778176 -0.59859,-1.556352 -0.5986,-0.778176 -1.55636,-1.376773 -0.95775,-0.658457 -1.97537,-0.838036 -0.53873,-0.179579 -0.95775,-0.419018 -0.35916,-0.299298 -0.35916,-0.658456 0,-0.359159 0.41902,-0.538738 0.41902,-0.179579 0.77817,-0.179579 0.77818,0 1.73594,0.05986 1.01761,0 2.2148,0.05986 1.1972,0 2.45425,0.05986 1.25706,0 2.39439,0 0.47888,0 0.77818,0.299299 0.35915,0.299298 0.59859,0.598597 l 14.18675,16.581136 q 0.11972,0.179579 0.2993,0.478878 0.23944,0.239439 0.41902,0.239439 0.17958,0 0.23944,-0.179579 0.0599,-0.179579 0.0599,-0.538738 l -0.23944,-11.79236 q -0.0599,-1.735932 -0.77818,-2.693687 -0.65845,-0.957755 -2.63382,-1.376773 -0.47888,-0.119719 -0.8979,-0.359158 -0.41902,-0.299299 -0.41902,-0.718316 0,-0.359159 0.41902,-0.538738 0.41902,-0.179579 0.71832,-0.179579 1.31691,0 2.03523,0.05986 0.71831,0.05986 1.37677,0.119719 0.71832,0.05986 1.73593,0.05986 1.01762,0 1.55635,-0.05986 0.5986,-0.05986 1.25706,-0.119719 0.65845,-0.05986 1.73593,-0.05986 0.35916,0 0.71831,0.239439 0.41902,0.179579 0.41902,0.478878 0,0.419017 -0.41902,0.718316 -0.41901,0.239439 -0.89789,0.359158 -1.73593,0.299299 -2.39439,1.257054 -0.5986,0.897895 -0.5986,2.573967 l -0.29929,19.753701 q 0,1.197194 -0.35916,1.85565 -0.2993,0.718317 -0.83804,0.718317 z m 14.17257,-0.718317 q -0.35915,0 -0.77817,-0.179579 -0.41902,-0.179579 -0.41902,-0.538737 0,-0.478878 0.41902,-0.718317 0.47888,-0.239438 0.89789,-0.299298 1.61622,-0.299298 2.57397,-0.838036 1.01762,-0.598597 1.01762,-2.03523 V 62.053426 q 0,-1.257054 -0.35916,-1.496492 -0.2993,-0.299299 -1.4965,-0.299299 h -2.87326 q -1.07748,0 -2.15495,1.017615 -1.07747,1.017615 -1.67607,1.91551 -0.17958,0.299299 -0.47888,0.718317 -0.23944,0.359158 -0.5986,0.658456 -0.35915,0.299299 -0.71831,0.299299 -0.23944,0 -0.41902,-0.119719 -0.17958,-0.17958 -0.17958,-0.419018 0,-0.419018 0.17958,-0.897896 0.17958,-0.538737 0.47888,-1.855651 0.2993,-1.316913 0.53873,-3.89088 0.0599,-0.658457 0.35916,-0.838036 0.2993,-0.179579 0.53874,-0.179579 0.2993,0 0.5986,0.239439 0.2993,0.179579 0.83803,0.478878 0.5986,0.299298 1.37678,0.538737 0.83803,0.179579 2.27466,0.179579 h 13.34872 q 1.85565,0 3.05284,-0.299299 1.25706,-0.299298 2.09509,-0.598597 0.47888,-0.179579 0.83804,-0.299298 0.41902,-0.179579 0.65845,-0.179579 0.2993,0 0.47888,0.239439 0.17958,0.239438 0.17958,0.478877 0,1.735932 0.0599,2.873266 0.11972,1.137334 0.17958,1.85565 0.0599,0.718317 0.0599,1.496493 0,0.179579 -0.17958,0.778176 -0.17958,0.598597 -0.5986,0.538737 -0.41901,-0.05986 -0.71831,-0.419018 -0.23944,-0.359158 -0.47888,-1.017614 -0.47888,-1.556353 -1.37677,-2.394388 -0.8979,-0.897896 -2.39439,-0.897896 h -3.65144 q -0.77818,0 -1.25706,0.598597 -0.41902,0.598597 -0.41902,1.197194 v 18.436787 q 0,1.376774 1.01762,2.03523 1.01761,0.598597 2.57397,0.897896 0.41901,0.05986 0.83803,0.299298 0.41902,0.179579 0.41902,0.658457 0,0.359158 -0.41902,0.538737 -0.35916,0.179579 -0.71831,0.179579 -1.01762,0 -2.21481,-0.05986 -1.13734,-0.05986 -2.33453,-0.11972 -1.13734,-0.119719 -2.27467,-0.119719 -1.13733,0 -2.27467,0.119719 -1.07747,0.05986 -2.21481,0.11972 -1.13733,0.05986 -2.21481,0.05986 z m 23.39094,0 q -0.35915,0 -0.77817,-0.179579 -0.41902,-0.179579 -0.41902,-0.538737 0,-0.478878 0.41902,-0.718317 0.41902,-0.239438 0.89789,-0.299298 1.43664,-0.239439 2.39439,-0.838036 1.01762,-0.598597 1.01762,-2.095089 V 63.430199 q 0,-1.676071 -0.71832,-2.514107 -0.65846,-0.838036 -2.39439,-1.197194 -0.53874,-0.11972 -0.95775,-0.359158 -0.35916,-0.299299 -0.35916,-0.778176 0,-0.359159 0.41902,-0.538738 0.41901,-0.179579 0.71831,-0.179579 1.07748,0 2.09509,0.05986 1.07748,0.05986 2.09509,0.179579 1.07748,0.05986 2.09509,0.05986 1.01762,0 2.09509,-0.05986 1.07748,-0.119719 2.15495,-0.179579 1.13733,-0.05986 2.15495,-0.05986 0.41902,0 0.77818,0.239439 0.35915,0.179579 0.35915,0.538737 0,0.419018 -0.41901,0.718317 -0.35916,0.239438 -0.83804,0.359158 -1.25705,0.239439 -1.97537,0.778176 -0.65846,0.478877 -0.95776,1.197194 -0.23943,0.658457 -0.23943,1.795791 v 16.880435 q 0,1.436633 0.95775,2.03523 1.01762,0.598597 2.45425,0.957755 0.41902,0.05986 0.83803,0.299298 0.47888,0.239439 0.47888,0.718317 0,0.359158 -0.41902,0.538737 -0.35915,0.179579 -0.71831,0.179579 -1.01762,0 -2.15495,-0.05986 -1.13734,-0.05986 -2.27467,-0.11972 -1.13733,-0.119719 -2.27467,-0.119719 -1.07747,0 -2.21481,0.119719 -1.07747,0.05986 -2.15495,0.11972 -1.07747,0.05986 -2.15495,0.05986 z m 32.90864,0.05986 q -0.35915,0 -0.77817,-0.179579 -0.35916,-0.239439 -0.35916,-0.598597 0,-0.478878 0.35916,-0.718317 0.41902,-0.239438 0.89789,-0.299298 1.67607,-0.419018 2.15495,-1.017615 0.53874,-0.658457 0.0599,-2.03523 l -0.89789,-2.992985 q -0.0599,-0.359158 -0.2993,-0.419018 -0.17958,-0.119719 -0.77818,-0.119719 h -8.61979 q -0.41902,0 -0.5986,0.179579 -0.17958,0.179579 -0.35916,0.538737 -0.5986,1.316914 -0.83804,2.03523 -0.23943,0.718317 -0.29929,1.376773 -0.11972,1.137335 0.47887,1.676072 0.5986,0.478878 1.91551,0.778176 0.47888,0.119719 0.83804,0.359158 0.41902,0.179579 0.41902,0.658457 0,0.359158 -0.41902,0.598597 -0.35916,0.179579 -0.71832,0.179579 -1.19719,0 -1.97537,-0.119719 -0.71831,-0.05986 -1.43663,-0.11972 -0.65846,-0.05986 -1.67607,-0.05986 -0.8979,0 -1.55635,0.05986 -0.5986,0.05986 -1.25706,0.11972 -0.59859,0.119719 -1.79579,0.119719 -0.35916,0 -0.77817,-0.179579 -0.41902,-0.179579 -0.41902,-0.598597 0,-0.478878 0.41902,-0.658457 0.41901,-0.179579 0.83803,-0.299298 0.8979,-0.179579 1.67607,-0.478878 0.77818,-0.299298 1.43664,-0.957755 0.71831,-0.658457 1.31691,-1.97537 l 6.94372,-16.281838 q 0.65846,-1.496493 0.5986,-2.274669 0,-0.838036 0.17958,-0.957755 0.41902,-0.299299 1.19719,-0.838036 0.77818,-0.538737 1.4965,-1.077474 0.77817,-0.538738 1.01761,-0.718317 0.53874,-0.478877 0.8979,-0.598597 0.35916,-0.179579 0.53873,-0.179579 0.23944,0 0.35916,0.239439 0.17958,0.239439 0.2993,0.658457 l 8.0212,21.429772 q 0.47888,1.316913 1.25705,2.514107 0.77818,1.137335 2.45425,1.436633 0.41902,0.05986 0.83804,0.299298 0.41902,0.239439 0.41902,0.718317 0,0.359158 -0.41902,0.538737 -0.35916,0.179579 -0.71832,0.179579 -1.67607,0 -3.05284,-0.119719 -1.37678,-0.11972 -2.93313,-0.11972 -0.95775,0 -1.97537,0.05986 -1.01761,0.05986 -2.09509,0.11972 -1.01761,0.119719 -2.27467,0.119719 z m -7.00358,-10.714886 h 6.64443 q 0.47887,0 0.53873,-0.11972 0.0599,-0.119719 -0.0599,-0.538737 -0.17958,-0.718316 -0.65845,-1.91551 -0.41902,-1.257054 -1.01762,-2.633827 -0.53874,-1.376773 -1.01761,-2.633827 -0.41902,-1.316913 -0.71832,-2.154949 -0.17958,-0.538737 -0.35916,-0.538737 -0.11972,0 -0.35916,0.538737 -0.77817,1.91551 -1.85565,4.489477 -1.01761,2.573968 -1.85565,4.848636 -0.11972,0.359158 0,0.538737 0.17958,0.11972 0.71832,0.11972 z"
                id="path13"
                class="logo"
            />
        </g>
    </g>
</svg>
